<svg id="ejZyduWtH0V1" xmlns="http://www.w3.org/2000/svg" xmlns:xlink="http://www.w3.org/1999/xlink" viewBox="0 0 100 56" shape-rendering="geometricPrecision" text-rendering="geometricPrecision" project-id="0a4c464cee9f466aba39fe4fce45d68d" export-id="fb64848d011d462f884c8840779d61b5" cached="false"><polygon points="0,-10 2.938926,-4.045085 9.510565,-3.09017 4.755283,1.545085 5.877853,8.09017 0,5 -5.877853,8.09017 -4.755283,1.545085 -9.510565,-3.09017 -2.938926,-4.045085 0,-10" transform="translate(9.510565 27.045085)" fill="#3775f2" stroke-width="0"/><polygon points="0,-10 2.938926,-4.045085 9.510565,-3.09017 4.755283,1.545085 5.877853,8.09017 0,5 -5.877853,8.09017 -4.755283,1.545085 -9.510565,-3.09017 -2.938926,-4.045085 0,-10" transform="matrix(1.035162 0 0 0.983504 29.344975 27.029333)" fill="#3775f2" stroke-width="0"/><polygon points="0,-10 2.938926,-4.045085 9.510565,-3.09017 4.755283,1.545085 5.877853,8.09017 0,5 -5.877853,8.09017 -4.755283,1.545085 -9.510565,-3.09017 -2.938926,-4.045085 0,-10" transform="translate(49.510565 26.880135)" fill="#3775f2" stroke-width="0"/><polygon points="0,-10 2.938926,-4.045085 9.510565,-3.09017 4.755283,1.545085 5.877853,8.09017 0,5 -5.877853,8.09017 -4.755283,1.545085 -9.510565,-3.09017 -2.938926,-4.045085 0,-10" transform="translate(70.020565 26.880128)" fill="#3775f2" stroke-width="0"/><polygon points="0,-10 2.938926,-4.045085 9.510565,-3.09017 4.755283,1.545085 5.877853,8.09017 0,5 -5.877853,8.09017 -4.755283,1.545085 -9.510565,-3.09017 -2.938926,-4.045085 0,-10" transform="translate(90.041695 26.880128)" fill="#d3dcee" stroke="#bbccec" stroke-width="0.5"/></svg>
